<svg xmlns="http://www.w3.org/2000/svg" width="520" height="340" viewBox="0 0 520 340">
    <defs>
        <linearGradient id="bgGradient" x1="0%" y1="0%" x2="100%" y2="100%">
            <stop offset="0%" stop-color="#0f1117"/>
            <stop offset="100%" stop-color="#181b25"/>
        </linearGradient>
        
        <linearGradient id="accentGradient" x1="0%" y1="0%" x2="100%" y2="0%">
            <stop offset="0%" stop-color="#c4c4c4"/>
            <stop offset="100%" stop-color="#0059ff"/>
        </linearGradient>
        
        <filter id="softGlow">
            <feGaussianBlur stdDeviation="2" result="blur"/>
            <feComposite in="SourceGraphic" in2="blur" operator="over"/>
        </filter>
    </defs>
    
    <!-- Hintergrund -->
    <rect width="520" height="340" fill="url(#bgGradient)" rx="8" ry="8"/>
    
    <!-- Header Box -->
    <rect x="10" y="10" width="500" height="50" fill="rgba(22, 27, 34, 0.8)" rx="6" ry="6"/>
    <text x="260" y="35" text-anchor="middle" font-family="'Segoe UI', Arial, sans-serif" font-size="18" font-weight="600" fill="#e6edf3">
        Codewars Statistics
    </text>
    <text x="260" y="50" text-anchor="middle" font-family="'Segoe UI', Arial, sans-serif" font-size="11" fill="#7d8590">
        @AxdeExpe
    </text>
    
    <!-- Hauptdaten Boxen -->
    <g font-family="'Segoe UI', Arial, sans-serif">
        <!-- Honor Box -->
        <rect x="20" y="75" width="150" height="80" fill="rgba(22, 27, 34, 0.9)" rx="6" ry="6"/>
        <text x="95" y="100" text-anchor="middle" font-size="14" fill="#7d8590">Honor</text>
        <text x="95" y="125" text-anchor="middle" font-size="26" font-weight="700" fill="#e6edf3">299</text>
        
        <!-- Rank Box -->
        <rect x="185" y="75" width="150" height="80" fill="rgba(22, 27, 34, 0.9)" rx="6" ry="6"/>
        <text x="260" y="100" text-anchor="middle" font-size="14" fill="#7d8590">Global Rank</text>
        <text x="260" y="125" text-anchor="middle" font-size="26" font-weight="700" fill="#e6edf3">
            #291523
        </text>
        
        <!-- Katas Box -->
        <rect x="350" y="75" width="150" height="80" fill="rgba(22, 27, 34, 0.9)" rx="6" ry="6"/>
        <text x="425" y="100" text-anchor="middle" font-size="14" fill="#7d8590">Katas Solved</text>
        <text x="425" y="125" text-anchor="middle" font-size="26" font-weight="700" fill="#e6edf3">23</text>
    </g>
    
    <!-- Rank Info Box -->
    <rect x="20" y="170" width="480" height="50" fill="rgba(22, 27, 34, 0.9)" rx="6" ry="6"/>
    <text x="250" y="190" text-anchor="middle" font-family="'Segoe UI', Arial, sans-serif" font-size="14" fill="#7d8590">Overall Rank</text>
    <text x="250" y="210" text-anchor="middle" font-family="'Segoe UI', Arial, sans-serif" font-size="16" font-weight="600" fill="#e6edf3">
        5 kyu • 356 points
    </text>
    
    <!-- Sprachen Box -->
    <rect x="20" y="235" width="480" height="70" fill="rgba(22, 27, 34, 0.9)" rx="6" ry="6"/>
    <text x="250" y="255" text-anchor="middle" font-family="'Segoe UI', Arial, sans-serif" font-size="14" font-weight="600" fill="#e6edf3">Top Languages</text>
    
    <!-- Sprach-Balken -->
    <g transform="translate(40 270)">
        <text x="0" y="6" font-size="11" fill="#7d8590">Javascript</text>
        <rect x="80" y="0" width="400" height="8" fill="rgba(125, 133, 144, 0.2)" rx="4" ry="4"/>
        <rect x="80" y="0" width="400.0" height="8" fill="url(#accentGradient)" rx="4" ry="4"/>
        <text x="485" y="6" font-size="10" fill="#7d8590" text-anchor="end">180</text>
        <text x="0" y="26" font-size="11" fill="#7d8590">Python</text>
        <rect x="80" y="20" width="400" height="8" fill="rgba(125, 133, 144, 0.2)" rx="4" ry="4"/>
        <rect x="80" y="20" width="391.1111111111111" height="8" fill="url(#accentGradient)" rx="4" ry="4"/>
        <text x="485" y="26" font-size="10" fill="#7d8590" text-anchor="end">176</text>
    </g>
    
    <!-- Footer Box -->
    <rect x="20" y="320" width="480" height="40" fill="rgba(22, 27, 34, 0.9)" rx="6" ry="6"/>
    <g font-family="'Segoe UI', Arial, sans-serif" font-size="11" fill="#7d8590">
        <text x="40" y="335">Authored Katas: <tspan fill="#e6edf3" font-weight="600">0</tspan></text>
        <text x="260" y="335" text-anchor="middle">Updated: 2025-09-25 16:52 UTC</text>
        <text x="460" y="335" text-anchor="end">Rank: <tspan fill="#e6edf3" font-weight="600">5 kyu</tspan></text>
    </g>
    
    <!-- Subtile Akzente -->
    <line x1="20" y1="165" x2="500" y2="165" stroke="rgba(0,89,255,0.3)" stroke-width="1"/>
    <line x1="20" y1="230" x2="500" y2="230" stroke="rgba(0,89,255,0.3)" stroke-width="1"/>
    <line x1="20" y1="315" x2="500" y2="315" stroke="rgba(0,89,255,0.3)" stroke-width="1"/>
</svg>