<svg xmlns="http://www.w3.org/2000/svg" width="540" height="360" viewBox="0 0 540 360">
    <defs>
        <linearGradient id="bgGradient" x1="0%" y1="0%" x2="100%" y2="100%">
            <stop offset="0%" stop-color="#0d1117"/>
            <stop offset="100%" stop-color="#161b22"/>
        </linearGradient>
        
        <linearGradient id="accentGradient" x1="0%" y1="0%" x2="100%" y2="0%">
            <stop offset="0%" stop-color="#c4c4c4"/>
            <stop offset="100%" stop-color="#0059ff"/>
        </linearGradient>
        
        <style>
            @import url('https://fonts.googleapis.com/css2?family=JetBrains+Mono:wght@300;400;600;700&display=swap');
        </style>
    </defs>
    
    <!-- Hintergrund -->
    <rect width="540" height="360" fill="url(#bgGradient)" rx="8" ry="8"/>
    
    <!-- Header Box -->
    <rect x="20" y="20" width="500" height="60" fill="rgba(22, 27, 34, 0.9)" rx="6" ry="6"/>
    <rect x="20" y="20" width="500" height="2" fill="url(#accentGradient)"/>
    <text x="270" y="45" text-anchor="middle" font-family="JetBrains Mono, monospace" font-size="18" font-weight="600" fill="#e6edf3">
        CODEWARS STATISTICS
    </text>
    <text x="270" y="62" text-anchor="middle" font-family="JetBrains Mono, monospace" font-size="11" fill="#7d8590">
        @AxdeExpe
    </text>
    
    <!-- Hauptdaten Boxen -->
    <g font-family="JetBrains Mono, monospace">
        <!-- Honor Box -->
        <rect x="20" y="100" width="150" height="80" fill="rgba(22, 27, 34, 0.9)" rx="6" ry="6"/>
        <rect x="20" y="100" width="150" height="2" fill="url(#accentGradient)"/>
        <text x="95" y="125" text-anchor="middle" font-size="12" fill="#7d8590">HONOR</text>
        <text x="95" y="150" text-anchor="middle" font-size="24" font-weight="600" fill="#e6edf3">299</text>
        
        <!-- Rank Box -->
        <rect x="185" y="100" width="150" height="80" fill="rgba(22, 27, 34, 0.9)" rx="6" ry="6"/>
        <rect x="185" y="100" width="150" height="2" fill="url(#accentGradient)"/>
        <text x="260" y="125" text-anchor="middle" font-size="12" fill="#7d8590">GLOBAL RANK</text>
        <text x="260" y="150" text-anchor="middle" font-size="24" font-weight="600" fill="#e6edf3">
            #291523
        </text>
        
        <!-- Katas Box -->
        <rect x="350" y="100" width="150" height="80" fill="rgba(22, 27, 34, 0.9)" rx="6" ry="6"/>
        <rect x="350" y="100" width="150" height="2" fill="url(#accentGradient)"/>
        <text x="425" y="125" text-anchor="middle" font-size="12" fill="#7d8590">KATAS SOLVED</text>
        <text x="425" y="150" text-anchor="middle" font-size="24" font-weight="600" fill="#e6edf3">23</text>
    </g>
    
    <!-- Rank Info Box -->
    <rect x="20" y="200" width="500" height="50" fill="rgba(22, 27, 34, 0.9)" rx="6" ry="6"/>
    <rect x="20" y="200" width="500" height="2" fill="url(#accentGradient)"/>
    <text x="270" y="220" text-anchor="middle" font-family="JetBrains Mono, monospace" font-size="12" fill="#7d8590">OVERALL RANK</text>
    <text x="270" y="240" text-anchor="middle" font-family="JetBrains Mono, monospace" font-size="14" font-weight="600" fill="#e6edf3">
        5 kyu • 356 POINTS
    </text>
    
    <!-- Sprachen Box -->
    <rect x="20" y="270" width="500" height="60" fill="rgba(22, 27, 34, 0.9)" rx="6" ry="6"/>
    <rect x="20" y="270" width="500" height="2" fill="url(#accentGradient)"/>
    <text x="270" y="290" text-anchor="middle" font-family="JetBrains Mono, monospace" font-size="12" font-weight="600" fill="#e6edf3">TOP LANGUAGES</text>
    
    <!-- Sprach-Balken -->
    <g transform="translate(40 305)">
        <g font-family="JetBrains Mono, monospace" font-size="11">
            <!-- Javascript -->
            <text x="0" y="5" fill="#7d8590">JAVASCRIPT</text>
            <rect x="80" y="0" width="420" height="6" fill="rgba(125, 133, 144, 0.2)" rx="3" ry="3"/>
            <rect x="80" y="0" width="420.0" height="6" fill="#e6edf3" rx="3" ry="3"/>
            <text x="505" y="5" fill="#7d8590" text-anchor="end">180</text>
            <!-- Python -->
            <text x="0" y="23" fill="#7d8590">PYTHON</text>
            <rect x="80" y="18" width="420" height="6" fill="rgba(125, 133, 144, 0.2)" rx="3" ry="3"/>
            <rect x="80" y="18" width="410.66666666666663" height="6" fill="#e6edf3" rx="3" ry="3"/>
            <text x="505" y="23" fill="#7d8590" text-anchor="end">176</text>
        </g>
    </g>
    
    <!-- Footer Box -->
    <rect x="20" y="345" width="500" height="30" fill="rgba(22, 27, 34, 0.9)" rx="6" ry="6"/>
    <rect x="20" y="345" width="500" height="2" fill="url(#accentGradient)"/>
    <g font-family="JetBrains Mono, monospace" font-size="10" fill="#7d8590">
        <text x="40" y="362">AUTHORED: <tspan fill="#e6edf3" font-weight="600">0</tspan></text>
        <text x="270" y="362" text-anchor="middle">UPDATED: 2025-09-25 16:58 UTC</text>
        <text x="480" y="362" text-anchor="end">RANK: <tspan fill="#e6edf3" font-weight="600">5 kyu</tspan></text>
    </g>
</svg>