<svg xmlns="http://www.w3.org/2000/svg" width="540" height="360" viewBox="0 0 540 360">
    <defs>
        <linearGradient id="bgGradient" x1="0%" y1="0%" x2="100%" y2="100%">
            <stop offset="0%" stop-color="#0d1117"/>
            <stop offset="100%" stop-color="#161b22"/>
        </linearGradient>
        
        <linearGradient id="accentGradient" x1="0%" y1="0%" x2="100%" y2="0%">
            <stop offset="0%" stop-color="#c4c4c4"/>
            <stop offset="100%" stop-color="#0059ff"/>
        </linearGradient>
    </defs>
    
    <!-- Hintergrund -->
    <rect width="540" height="360" fill="url(#bgGradient)" rx="8" ry="8"/>
    
    <!-- Header Box -->
    <rect x="20" y="15" width="500" height="50" fill="rgba(22, 27, 34, 0.9)" rx="6" ry="6"/>
    <rect x="20" y="15" width="500" height="2" fill="url(#accentGradient)"/>
    <text x="270" y="35" text-anchor="middle" font-family="Consolas, Monaco, 'Courier New', monospace" font-size="16" font-weight="600" fill="#e6edf3">
        CODEWARS STATISTICS
    </text>
    <text x="270" y="50" text-anchor="middle" font-family="Consolas, Monaco, 'Courier New', monospace" font-size="10" fill="#7d8590">
        @AxdeExpe
    </text>
    
    <!-- Hauptdaten Boxen - Volle Breite nutzend -->
    <g font-family="Consolas, Monaco, 'Courier New', monospace">
        <!-- Honor Box -->
        <rect x="20" y="80" width="160" height="70" fill="rgba(22, 27, 34, 0.9)" rx="6" ry="6"/>
        <rect x="20" y="80" width="160" height="2" fill="url(#accentGradient)"/>
        <text x="100" y="100" text-anchor="middle" font-size="11" fill="#7d8590">HONOR</text>
        <text x="100" y="120" text-anchor="middle" font-size="20" font-weight="600" fill="#e6edf3">375</text>
        
        <!-- Rank Box -->
        <rect x="190" y="80" width="160" height="70" fill="rgba(22, 27, 34, 0.9)" rx="6" ry="6"/>
        <rect x="190" y="80" width="160" height="2" fill="url(#accentGradient)"/>
        <text x="270" y="100" text-anchor="middle" font-size="11" fill="#7d8590">GLOBAL RANK</text>
        <text x="270" y="120" text-anchor="middle" font-size="20" font-weight="600" fill="#e6edf3">
            #199226
        </text>
        
        <!-- Katas Box -->
        <rect x="360" y="80" width="160" height="70" fill="rgba(22, 27, 34, 0.9)" rx="6" ry="6"/>
        <rect x="360" y="80" width="160" height="2" fill="url(#accentGradient)"/>
        <text x="440" y="100" text-anchor="middle" font-size="11" fill="#7d8590">KATAS SOLVED</text>
        <text x="440" y="120" text-anchor="middle" font-size="20" font-weight="600" fill="#e6edf3">28</text>
    </g>
    
    <!-- Rank Info Box -->
    <rect x="20" y="165" width="500" height="40" fill="rgba(22, 27, 34, 0.9)" rx="6" ry="6"/>
    <rect x="20" y="165" width="500" height="2" fill="url(#accentGradient)"/>
    <text x="270" y="182" text-anchor="middle" font-family="Consolas, Monaco, 'Courier New', monospace" font-size="11" fill="#7d8590">OVERALL RANK</text>
    <text x="270" y="197" text-anchor="middle" font-family="Consolas, Monaco, 'Courier New', monospace" font-size="12" font-weight="600" fill="#e6edf3">
        5 kyu • 573 POINTS
    </text>
    
    <!-- Sprachen Box -->
    <rect x="20" y="220" width="500" height="90" fill="rgba(22, 27, 34, 0.9)" rx="6" ry="6"/>
    <rect x="20" y="220" width="500" height="2" fill="url(#accentGradient)"/>
    <text x="270" y="238" text-anchor="middle" font-family="Consolas, Monaco, 'Courier New', monospace" font-size="11" font-weight="600" fill="#e6edf3">TOP LANGUAGES</text>
    
    <!-- Sprach-Balken - Komplett innerhalb der Box -->
    <g transform="translate(40 250)">
        <g font-family="Consolas, Monaco, 'Courier New', monospace" font-size="10">
            <!-- Python -->
            <text x="0" y="4" fill="#7d8590">PYTHON</text>
            <rect x="80" y="0" width="320" height="5" fill="rgba(125, 133, 144, 0.2)" rx="2" ry="2"/>
            <rect x="80" y="0" width="320.0" height="5" fill="#e6edf3" rx="2" ry="2"/>
            <text x="410" y="4" fill="#7d8590" text-anchor="start">393</text>
            <!-- Javascript -->
            <text x="0" y="17" fill="#7d8590">JAVASCRIPT</text>
            <rect x="80" y="13" width="320" height="5" fill="rgba(125, 133, 144, 0.2)" rx="2" ry="2"/>
            <rect x="80" y="13" width="146.5648854961832" height="5" fill="#e6edf3" rx="2" ry="2"/>
            <text x="410" y="17" fill="#7d8590" text-anchor="start">180</text>
        </g>
    </g>
    
    <!-- Footer Box - Innerhalb des Bildes -->
    <rect x="20" y="325" width="500" height="25" fill="rgba(22, 27, 34, 0.9)" rx="6" ry="6"/>
    <rect x="20" y="325" width="500" height="2" fill="url(#accentGradient)"/>
    <g font-family="Consolas, Monaco, 'Courier New', monospace" font-size="9" fill="#7d8590">
        <text x="40" y="340">AUTHORED: <tspan fill="#e6edf3" font-weight="600">0</tspan></text>
        <text x="270" y="340" text-anchor="middle">UPDATED: 2025-12-03 17:26 UTC</text>
        <text x="480" y="340" text-anchor="end">RANK: <tspan fill="#e6edf3" font-weight="600">5 kyu</tspan></text>
    </g>
</svg>